<?xml version="1.0" encoding="UTF-8" standalone="no"?>
<!DOCTYPE svg PUBLIC "-//W3C//DTD SVG 1.1//EN"
 "http://www.w3.org/Graphics/SVG/1.1/DTD/svg11.dtd">
<!-- Generated by graphviz version 15.0.0 (20260523.1842)
 -->
<!-- Title: observability&#45;demo Pages: 1 -->
<svg width="1312pt" height="218pt"
 viewBox="0.00 0.00 1312.00 218.00" xmlns="http://www.w3.org/2000/svg" xmlns:xlink="http://www.w3.org/1999/xlink">
<g id="graph0" class="graph" transform="scale(1 1) rotate(0) translate(4 214.17)">
<title>observability&#45;demo</title>
<polygon fill="white" stroke="none" points="-4,4 -4,-214.17 1308.19,-214.17 1308.19,4 -4,4"/>
<g id="clust1" class="cluster">
<title>cluster_root/enrich&#45;results</title>
<path fill="none" stroke="#60a5fa" stroke-width="1.5" stroke-dasharray="5,2" d="M968.1,-48.08C968.1,-48.08 1284.19,-48.08 1284.19,-48.08 1290.19,-48.08 1296.19,-54.08 1296.19,-60.08 1296.19,-60.08 1296.19,-173.08 1296.19,-173.08 1296.19,-179.08 1290.19,-185.08 1284.19,-185.08 1284.19,-185.08 968.1,-185.08 968.1,-185.08 962.1,-185.08 956.1,-179.08 956.1,-173.08 956.1,-173.08 956.1,-60.08 956.1,-60.08 956.1,-54.08 962.1,-48.08 968.1,-48.08"/>
<text xml:space="preserve" text-anchor="middle" x="1126.14" y="-167.78" font-family="Times,serif" font-size="14.00">Subflow: enrichment&#45;subflow</text>
</g>
<!-- root/check&#45;eligibility -->
<g id="node1" class="node">
<title>root/check&#45;eligibility</title>
<polygon fill="lightyellow" stroke="#16a34a" stroke-width="2" points="283.05,-188.08 176.3,-105.08 283.05,-22.08 389.8,-105.08 283.05,-188.08"/>
<text xml:space="preserve" text-anchor="middle" x="283.05" y="-129.28" font-family="Helvetica,sans-Serif" font-size="14.00" fill="#166534">check&#45;eligibility</text>
<text xml:space="preserve" text-anchor="middle" x="283.05" y="-114.28" font-family="Helvetica,sans-Serif" font-size="14.00" fill="#166534">(condition)</text>
<text xml:space="preserve" text-anchor="middle" x="283.05" y="-99.28" font-family="Helvetica,sans-Serif" font-size="14.00" fill="#166534">[Success]</text>
<text xml:space="preserve" text-anchor="middle" x="283.05" y="-84.28" font-family="Helvetica,sans-Serif" font-size="14.00" fill="#166534">condition=true</text>
<text xml:space="preserve" text-anchor="middle" x="283.05" y="-69.28" font-family="Helvetica,sans-Serif" font-size="14.00" fill="#166534">8.886958ms</text>
</g>
<!-- root/select&#45;pipeline -->
<g id="node5" class="node">
<title>root/select&#45;pipeline</title>
<polygon fill="lightblue" stroke="#16a34a" stroke-width="2" points="529.05,-146.58 426.8,-146.58 426.8,-63.58 529.05,-63.58 529.05,-146.58"/>
<text xml:space="preserve" text-anchor="middle" x="477.93" y="-129.28" font-family="Helvetica,sans-Serif" font-size="14.00" fill="#166534">select&#45;pipeline</text>
<text xml:space="preserve" text-anchor="middle" x="477.93" y="-114.28" font-family="Helvetica,sans-Serif" font-size="14.00" fill="#166534">(route)</text>
<text xml:space="preserve" text-anchor="middle" x="477.93" y="-99.28" font-family="Helvetica,sans-Serif" font-size="14.00" fill="#166534">[Success]</text>
<text xml:space="preserve" text-anchor="middle" x="477.93" y="-84.28" font-family="Helvetica,sans-Serif" font-size="14.00" fill="#166534">route=0</text>
<text xml:space="preserve" text-anchor="middle" x="477.93" y="-69.28" font-family="Helvetica,sans-Serif" font-size="14.00" fill="#166534">1.958µs</text>
</g>
<!-- root/check&#45;eligibility&#45;&gt;root/select&#45;pipeline -->
<g id="edge1" class="edge">
<title>root/check&#45;eligibility&#45;&gt;root/select&#45;pipeline</title>
<path fill="none" stroke="black" d="M391.2,-105.08C399.27,-105.08 407.23,-105.08 414.85,-105.08"/>
<polygon fill="black" stroke="black" points="414.64,-108.58 424.64,-105.08 414.64,-101.58 414.64,-108.58"/>
</g>
<!-- root/enrich&#45;results -->
<g id="node2" class="node">
<title>root/enrich&#45;results</title>
<polygon fill="lightgreen" stroke="#16a34a" stroke-width="2" points="882.35,-138.08 879.35,-142.08 858.35,-142.08 855.35,-138.08 783.85,-138.08 783.85,-70.08 882.35,-70.08 882.35,-138.08"/>
<text xml:space="preserve" text-anchor="middle" x="833.1" y="-120.78" font-family="Helvetica,sans-Serif" font-size="14.00" fill="#166534">enrich&#45;results</text>
<text xml:space="preserve" text-anchor="middle" x="833.1" y="-105.78" font-family="Helvetica,sans-Serif" font-size="14.00" fill="#166534">(subflow)</text>
<text xml:space="preserve" text-anchor="middle" x="833.1" y="-90.78" font-family="Helvetica,sans-Serif" font-size="14.00" fill="#166534">[Success]</text>
<text xml:space="preserve" text-anchor="middle" x="833.1" y="-75.78" font-family="Helvetica,sans-Serif" font-size="14.00" fill="#166534">26.643542ms</text>
</g>
<!-- root/enrich&#45;results/load&#45;features -->
<g id="node7" class="node">
<title>root/enrich&#45;results/load&#45;features</title>
<ellipse fill="lightcoral" stroke="#16a34a" stroke-width="2" cx="1031.1" cy="-104.08" rx="67" ry="48.08"/>
<text xml:space="preserve" text-anchor="middle" x="1031.1" y="-120.78" font-family="Helvetica,sans-Serif" font-size="14.00" fill="#166534">load&#45;features</text>
<text xml:space="preserve" text-anchor="middle" x="1031.1" y="-105.78" font-family="Helvetica,sans-Serif" font-size="14.00" fill="#166534">(critical)</text>
<text xml:space="preserve" text-anchor="middle" x="1031.1" y="-90.78" font-family="Helvetica,sans-Serif" font-size="14.00" fill="#166534">[Success]</text>
<text xml:space="preserve" text-anchor="middle" x="1031.1" y="-75.78" font-family="Helvetica,sans-Serif" font-size="14.00" fill="#166534">15.4465ms</text>
</g>
<!-- root/enrich&#45;results&#45;&gt;root/enrich&#45;results/load&#45;features -->
<g id="edge8" class="edge">
<title>root/enrich&#45;results&#45;&gt;root/enrich&#45;results/load&#45;features</title>
<path fill="none" stroke="#16a34a" stroke-dasharray="1,5" d="M883.31,-104.08C904.16,-104.08 928.97,-104.08 952.21,-104.08"/>
<polygon fill="#16a34a" stroke="#16a34a" points="944.59,-107.58 954.59,-104.08 944.59,-100.58 944.59,-107.58"/>
<text xml:space="preserve" text-anchor="middle" x="923.23" y="-105.78" font-family="Helvetica,sans-Serif" font-size="14.00">subflow</text>
</g>
<!-- root/fetch&#45;profile -->
<g id="node3" class="node">
<title>root/fetch&#45;profile</title>
<ellipse fill="lightcoral" stroke="#16a34a" stroke-width="2" cx="69.65" cy="-105.08" rx="69.65" ry="48.08"/>
<text xml:space="preserve" text-anchor="middle" x="69.65" y="-121.78" font-family="Helvetica,sans-Serif" font-size="14.00" fill="#166534">fetch&#45;profile</text>
<text xml:space="preserve" text-anchor="middle" x="69.65" y="-106.78" font-family="Helvetica,sans-Serif" font-size="14.00" fill="#166534">(critical)</text>
<text xml:space="preserve" text-anchor="middle" x="69.65" y="-91.78" font-family="Helvetica,sans-Serif" font-size="14.00" fill="#166534">[Success]</text>
<text xml:space="preserve" text-anchor="middle" x="69.65" y="-76.78" font-family="Helvetica,sans-Serif" font-size="14.00" fill="#166534">22.335917ms</text>
</g>
<!-- root/fetch&#45;profile&#45;&gt;root/check&#45;eligibility -->
<g id="edge2" class="edge">
<title>root/fetch&#45;profile&#45;&gt;root/check&#45;eligibility</title>
<path fill="none" stroke="black" d="M140.16,-105.08C147.77,-105.08 155.66,-105.08 163.65,-105.08"/>
<polygon fill="black" stroke="black" points="163.48,-108.58 173.48,-105.08 163.48,-101.58 163.48,-108.58"/>
</g>
<!-- root/premium&#45;ranking -->
<g id="node4" class="node">
<title>root/premium&#45;ranking</title>
<ellipse fill="lightcoral" stroke="#16a34a" stroke-width="2" cx="659.7" cy="-162.08" rx="83.97" ry="48.08"/>
<text xml:space="preserve" text-anchor="middle" x="659.7" y="-178.78" font-family="Helvetica,sans-Serif" font-size="14.00" fill="#166534">premium&#45;ranking</text>
<text xml:space="preserve" text-anchor="middle" x="659.7" y="-163.78" font-family="Helvetica,sans-Serif" font-size="14.00" fill="#166534">(critical)</text>
<text xml:space="preserve" text-anchor="middle" x="659.7" y="-148.78" font-family="Helvetica,sans-Serif" font-size="14.00" fill="#166534">[Success]</text>
<text xml:space="preserve" text-anchor="middle" x="659.7" y="-133.78" font-family="Helvetica,sans-Serif" font-size="14.00" fill="#166534">31.143667ms</text>
</g>
<!-- root/premium&#45;ranking&#45;&gt;root/enrich&#45;results -->
<g id="edge3" class="edge">
<title>root/premium&#45;ranking&#45;&gt;root/enrich&#45;results</title>
<path fill="none" stroke="black" d="M732.89,-137.65C745.98,-133.22 759.51,-128.65 772.2,-124.35"/>
<polygon fill="black" stroke="black" points="773.32,-127.67 781.67,-121.15 771.07,-121.04 773.32,-127.67"/>
</g>
<!-- root/select&#45;pipeline&#45;&gt;root/premium&#45;ranking -->
<g id="edge4" class="edge">
<title>root/select&#45;pipeline&#45;&gt;root/premium&#45;ranking</title>
<path fill="none" stroke="#2563eb" stroke-width="2.5" d="M529.96,-121.26C543.07,-125.42 557.55,-130.01 571.93,-134.57"/>
<polygon fill="#2563eb" stroke="#2563eb" stroke-width="2.5" points="570.86,-137.9 581.45,-137.59 572.98,-131.23 570.86,-137.9"/>
<text xml:space="preserve" text-anchor="middle" x="550.8" y="-130.18" font-family="Helvetica,sans-Serif" font-size="14.00">0</text>
</g>
<!-- root/standard&#45;ranking -->
<g id="node6" class="node">
<title>root/standard&#45;ranking</title>
<ellipse fill="lightcoral" stroke="#94a3b8" stroke-width="1.5" cx="659.7" cy="-48.08" rx="87.15" ry="48.08"/>
<text xml:space="preserve" text-anchor="middle" x="659.7" y="-64.78" font-family="Helvetica,sans-Serif" font-size="14.00" fill="#64748b">standard&#45;ranking</text>
<text xml:space="preserve" text-anchor="middle" x="659.7" y="-49.78" font-family="Helvetica,sans-Serif" font-size="14.00" fill="#64748b">(critical)</text>
<text xml:space="preserve" text-anchor="middle" x="659.7" y="-34.78" font-family="Helvetica,sans-Serif" font-size="14.00" fill="#64748b">[Skipped]</text>
<text xml:space="preserve" text-anchor="middle" x="659.7" y="-19.78" font-family="Helvetica,sans-Serif" font-size="14.00" fill="#64748b">route not selected</text>
</g>
<!-- root/select&#45;pipeline&#45;&gt;root/standard&#45;ranking -->
<g id="edge5" class="edge">
<title>root/select&#45;pipeline&#45;&gt;root/standard&#45;ranking</title>
<path fill="none" stroke="#cbd5e1" stroke-dasharray="5,2" d="M529.96,-88.9C543.33,-84.66 558.11,-79.98 572.75,-75.33"/>
<polygon fill="#cbd5e1" stroke="#cbd5e1" points="573.45,-78.78 581.93,-72.42 571.34,-72.11 573.45,-78.78"/>
<text xml:space="preserve" text-anchor="middle" x="550.8" y="-85.06" font-family="Helvetica,sans-Serif" font-size="14.00" fill="#94a3b8">1</text>
</g>
<!-- root/standard&#45;ranking&#45;&gt;root/enrich&#45;results -->
<g id="edge6" class="edge">
<title>root/standard&#45;ranking&#45;&gt;root/enrich&#45;results</title>
<path fill="none" stroke="black" d="M735.38,-72.48C747.81,-76.54 760.56,-80.71 772.55,-84.63"/>
<polygon fill="black" stroke="black" points="771.29,-87.9 781.88,-87.68 773.46,-81.24 771.29,-87.9"/>
</g>
<!-- root/enrich&#45;results/merge&#45;features -->
<g id="node8" class="node">
<title>root/enrich&#45;results/merge&#45;features</title>
<ellipse fill="lightcoral" stroke="#16a34a" stroke-width="2" cx="1211.64" cy="-104.08" rx="76.54" ry="48.08"/>
<text xml:space="preserve" text-anchor="middle" x="1211.64" y="-120.78" font-family="Helvetica,sans-Serif" font-size="14.00" fill="#166534">merge&#45;features</text>
<text xml:space="preserve" text-anchor="middle" x="1211.64" y="-105.78" font-family="Helvetica,sans-Serif" font-size="14.00" fill="#166534">(critical)</text>
<text xml:space="preserve" text-anchor="middle" x="1211.64" y="-90.78" font-family="Helvetica,sans-Serif" font-size="14.00" fill="#166534">[Success]</text>
<text xml:space="preserve" text-anchor="middle" x="1211.64" y="-75.78" font-family="Helvetica,sans-Serif" font-size="14.00" fill="#166534">10.955833ms</text>
</g>
<!-- root/enrich&#45;results/load&#45;features&#45;&gt;root/enrich&#45;results/merge&#45;features -->
<g id="edge7" class="edge">
<title>root/enrich&#45;results/load&#45;features&#45;&gt;root/enrich&#45;results/merge&#45;features</title>
<path fill="none" stroke="black" d="M1099.09,-104.08C1106.89,-104.08 1114.94,-104.08 1122.96,-104.08"/>
<polygon fill="black" stroke="black" points="1122.76,-107.58 1132.76,-104.08 1122.76,-100.58 1122.76,-107.58"/>
</g>
</g>
</svg>
